<svg xmlns="http://www.w3.org/2000/svg" width="171" height="24" fill="none" viewBox="0 0 171 24"><path fill="#58a399" d="M0 17.211a7.12 7.12 0 0 1 2.097-5.365 7.15 7.15 0 0 1 5.385-2.068c3.218 0 5.76 1.605 5.76 3.837a2.6 2.6 0 0 1-1.274 2.236 2.61 2.61 0 0 1-3.547-.865 2.596 2.596 0 0 1 .799-3.555 2 2 0 0 0-.434 0c-1.738 0-3.074 2.489-3.074 4.977a3.75 3.75 0 0 0 2.064 3.754c.455.227.952.359 1.46.389a8.3 8.3 0 0 0 4.988-1.879c.322-.257 1.416.096 1.223.498a10.2 10.2 0 0 1-3.569 3.455c-1.457.84-3.1 1.308-4.782 1.361a6.83 6.83 0 0 1-4.99-1.883A6.8 6.8 0 0 1 0 17.21"/><path fill="#58a399" d="M14.594 19.748V10.82c0-.722.901-.754 1.432-.754a4.34 4.34 0 0 1 3.193 1.12 4.32 4.32 0 0 1 1.41 3.07v6.615c0 .899 2.348-.578 3.62-2.136.257-.32 1.351.113 1.19.53-.708 1.606-3.218 4.704-6.436 4.704a4.3 4.3 0 0 1-3.088-1.192 4.29 4.29 0 0 1-1.32-3.03m.402-13.727a2.61 2.61 0 0 1 1.59-2.42 2.63 2.63 0 0 1 2.854.521 2.615 2.615 0 0 1-1.74 4.5 2.61 2.61 0 0 1-2.496-1.583 2.6 2.6 0 0 1-.208-1.018"/><path fill="#58a399" d="M32.262 19.748v-5.523c0-2.89-1.497-3.211-2.864-2.665v11.335c0 .722-.901.754-1.448.754a4.32 4.32 0 0 1-3.177-1.127 4.3 4.3 0 0 1-1.393-3.063V10.82c0-.722.885-.754 1.416-.754a4.84 4.84 0 0 1 2.896.899 8.2 8.2 0 0 1 4.377-1.188c4.49 0 6.227 2.713 6.227 4.816v6.181c0 .546 0 1.044 1.303 0 .322-.256 1.416.113 1.19.53a5.29 5.29 0 0 1-4.15 2.682 4.3 4.3 0 0 1-3.073-1.21 4.29 4.29 0 0 1-1.304-3.03"/><path fill="#121b21" d="M42.834 21.337a2.6 2.6 0 0 1 1.609-2.403 2.61 2.61 0 0 1 2.84.564 2.6 2.6 0 1 1-3.681 3.674 2.61 2.61 0 0 1-.768-1.835M59.906 19.748v-5.523c0-2.89-1.513-3.211-2.88-2.665v11.335c0 .722-.886.754-1.449.754a4.32 4.32 0 0 1-3.177-1.127 4.3 4.3 0 0 1-1.393-3.063v-6.615c0-.192 0-.289-.209-.289a6.8 6.8 0 0 0-2.72 1.895c-.289.353-1.367-.113-1.19-.514.692-1.606 3.218-4.223 5.76-4.223a4.38 4.38 0 0 1 2.88 1.06 8.2 8.2 0 0 1 4.168-1.06c4.49 0 6.227 2.714 6.227 4.817v6.342c0 .899 2.35-.578 3.62-2.136.258-.32 1.368.113 1.191.53-.691 1.606-3.218 4.704-6.436 4.704a4.3 4.3 0 0 1-3.078-1.198 4.29 4.29 0 0 1-1.314-3.024"/><path fill="#121b21" d="M68.144 20.47c0-4.415 7.482-3.965 7.482-7.289a1.84 1.84 0 0 0-1.264-1.86 1.86 1.86 0 0 0-.796-.082 3.1 3.1 0 0 0-1.416.385 2.23 2.23 0 0 1 1.062 1.927 2.3 2.3 0 0 1-.678 1.634 2.32 2.32 0 0 1-3.956-1.634c0-2.328 3.315-3.838 6.533-3.838 4.312 0 6.549 2.682 6.549 5.7v5.459c0 .899 2.333-.578 3.636-2.136.241-.32 1.368.113 1.19.53-.691 1.606-3.217 4.704-6.435 4.704a4.43 4.43 0 0 1-3.219-1.3 8.45 8.45 0 0 1-4.376 1.3 3.93 3.93 0 0 1-3.862-2.036 3.9 3.9 0 0 1-.45-1.464m7.482 1.156V16.2c-1.127 1.236-2.607 2.103-2.607 3.724a2.1 2.1 0 0 0 1.883 2.216c.37 0 .724-.257.724-.514"/><path fill="#121b21" d="M90.462 15.927v6.968c0 .722-.87.754-1.433.754a4.335 4.335 0 0 1-4.21-2.512 4.3 4.3 0 0 1-.391-1.678V4.399c-1.513 0-7.386 4.158-11.553 4.158a3.48 3.48 0 0 1-3.526-2.031 3.5 3.5 0 0 1-.304-1.404 8.52 8.52 0 0 1 2.43-4.913c.257-.29 1.223-.29 1.223 0a3.5 3.5 0 0 0 .93 2.914 3.52 3.52 0 0 0 2.867 1.083c3.218 0 6.34-1.734 9.38-1.734a4.3 4.3 0 0 1 3.222 1.144 4.29 4.29 0 0 1 1.365 3.127v6.535a8.03 8.03 0 0 1 2.656-3.207 8.06 8.06 0 0 1 3.909-1.45 2.61 2.61 0 0 1 2.406 1.603 2.595 2.595 0 0 1-.558 2.832 2.609 2.609 0 0 1-4.455-1.817v-.29a8.5 8.5 0 0 0-2.43 2.602c5.133.546 6.436 7.112 7.321 7.112.435 0 1.481-.433 2.784-1.943.258-.32 1.368.113 1.191.53-.692 1.606-3.218 4.704-6.436 4.704-4.602-.016-4.458-7.032-6.388-8.027"/><path fill="#121b21" d="M100.937 20.47c0-4.415 7.482-3.965 7.482-7.289a1.85 1.85 0 0 0-.582-1.444 1.87 1.87 0 0 0-1.478-.498c-.502.01-.993.142-1.432.385a2.21 2.21 0 0 1 1.078 1.927 2.317 2.317 0 0 1-3.955 1.635 2.3 2.3 0 0 1-.679-1.635c0-2.328 3.218-3.838 6.436-3.838 4.313 0 6.549 2.682 6.549 5.7v5.459c0 .899 2.349-.578 3.653-2.136.225-.32 1.367.113 1.19.53-.692 1.606-3.218 4.704-6.436 4.704a4.43 4.43 0 0 1-3.218-1.3 8.54 8.54 0 0 1-4.377 1.3 3.93 3.93 0 0 1-2.832-.887 3.9 3.9 0 0 1-1.399-2.613m7.482 1.156V16.2c-1.143 1.236-2.623 2.103-2.623 3.724a2.1 2.1 0 0 0 .502 1.49 2.1 2.1 0 0 0 1.397.726c.37 0 .724-.257.724-.514"/><path fill="#121b21" d="M116.898 23.28c-.499-.289-1.255-.755-.869-1.397 0 0 3.379-5.25 5.471-8.46a6.14 6.14 0 0 1-3.218.979 2.313 2.313 0 0 1-1.53-3.973 2.32 2.32 0 0 1 3.928 1.66v.29c1.85-.867 2.928-2.601 5.535-2.601a5.26 5.26 0 0 1 2.51.658c.45.289 1.239.755.869 1.397 0 0-3.508 5.426-5.6 8.605a6.45 6.45 0 0 1 4.152-1.702 2.61 2.61 0 0 1 2.385 1.628 2.6 2.6 0 0 1-1.921 3.526 2.61 2.61 0 0 1-2.666-1.111 2.6 2.6 0 0 1-.437-1.442 2 2 0 0 1 0-.32c-1.738 1.075-2.977 2.921-6.083 2.921a5.45 5.45 0 0 1-2.526-.658"/><path fill="#121b21" d="M130.479 20.47c0-4.415 7.482-3.965 7.482-7.289a1.87 1.87 0 0 0-.582-1.444 1.87 1.87 0 0 0-1.477-.498 3 3 0 0 0-1.416.385 2.24 2.24 0 0 1 1.062 1.927 2.307 2.307 0 0 1-1.431 2.136 2.32 2.32 0 0 1-3.204-2.136c0-2.328 3.219-3.838 6.437-3.838 4.312 0 6.549 2.682 6.549 5.7v5.459c0 .899 2.349-.578 3.652-2.136.225-.32 1.368.113 1.191.53-.692 1.606-3.218 4.704-6.436 4.704a4.43 4.43 0 0 1-3.219-1.3 8.54 8.54 0 0 1-4.376 1.3 3.93 3.93 0 0 1-2.832-.887 3.9 3.9 0 0 1-1.4-2.613m7.482 1.156V16.2c-1.142 1.236-2.607 2.103-2.607 3.724a2.086 2.086 0 0 0 1.883 2.216c.37 0 .724-.257.724-.514"/><path fill="#121b21" d="M146.73 19.748v-8.156h-.579a1.13 1.13 0 0 1-.837-1.156c0-.145 0-.37.161-.37h1.255V7.61a4.3 4.3 0 0 1 1.409-3.07 4.34 4.34 0 0 1 3.193-1.12c.531 0 1.416 0 1.416.754v5.893h1.191a1.16 1.16 0 0 1 .869 1.156c0 .144 0 .369-.193.369h-1.867v9.28c0 .899 2.349-.578 3.653-2.136.241-.32 1.367.113 1.19.53-.724 1.606-3.218 4.704-6.436 4.704a4.32 4.32 0 0 1-4.063-2.574 4.3 4.3 0 0 1-.362-1.648"/><path fill="#121b21" d="M155.017 16.858a7.78 7.78 0 0 1 2.51-5.044 7.814 7.814 0 0 1 10.524 0 7.78 7.78 0 0 1 2.51 5.044 7.78 7.78 0 0 1-2.51 5.044 7.814 7.814 0 0 1-10.524 0 7.78 7.78 0 0 1-2.51-5.044m9.526 0c0-3.035-.789-5.49-1.77-5.49-.982 0-1.738 2.455-1.738 5.49 0 3.034.788 5.49 1.738 5.49.949 0 1.77-2.456 1.77-5.49"/></svg>