<svg width="30" height="30" viewBox="0 0 30 30" fill="none" xmlns="http://www.w3.org/2000/svg">
<path d="M7.04524 7.04491C6.67912 7.41103 6.67912 8.00462 7.04524 8.37074L21.6293 22.9548C21.9954 23.3209 22.589 23.3209 22.9551 22.9548V22.9548C23.3213 22.5887 23.3213 21.9951 22.9551 21.629L8.37106 7.04491C8.00495 6.6788 7.41135 6.6788 7.04524 7.04491V7.04491Z" fill="#222222" stroke="black" stroke-width="0.8"/>
<path d="M23.1354 7.22539C23.5015 7.59151 23.5015 8.1851 23.1354 8.55122L8.55135 23.1353C8.18523 23.5014 7.59164 23.5014 7.22552 23.1353V23.1353C6.85941 22.7692 6.85941 22.1756 7.22552 21.8095L21.8096 7.22539C22.1757 6.85928 22.7693 6.85928 23.1354 7.22539V7.22539Z" fill="#222222" stroke="black" stroke-width="0.8"/>
</svg>
